<mxfile host="65bd71144e">
    <diagram id="44rFT-_hxKNVDTm3uKtE" name="Page-1">
        <mxGraphModel dx="807" dy="582" grid="1" gridSize="10" guides="1" tooltips="1" connect="1" arrows="1" fold="1" page="1" pageScale="1" pageWidth="850" pageHeight="1100" math="0" shadow="0">
            <root>
                <mxCell id="0"/>
                <mxCell id="1" parent="0"/>
                <mxCell id="2" value="Pets&lt;br&gt;&amp;nbsp;&lt;br&gt;breed:string&lt;br&gt;image_url:string&lt;br&gt;age:integer&lt;br&gt;owner_id: integer" style="rounded=1;whiteSpace=wrap;html=1;" vertex="1" parent="1">
                    <mxGeometry x="31" y="440" width="190" height="160" as="geometry"/>
                </mxCell>
                <mxCell id="3" value="requests&lt;br&gt;(join table)&lt;br&gt;&lt;br&gt;request:string&amp;nbsp;&lt;br&gt;date:datetime&lt;br&gt;pet_id:integer&lt;br&gt;handler_id:integer" style="rounded=1;whiteSpace=wrap;html=1;" vertex="1" parent="1">
                    <mxGeometry x="330" y="440" width="190" height="160" as="geometry"/>
                </mxCell>
                <mxCell id="4" value="handler&amp;nbsp;&lt;br&gt;&lt;br&gt;email:string&amp;nbsp;&lt;br&gt;phone:integer&lt;br&gt;name:string" style="rounded=1;whiteSpace=wrap;html=1;" vertex="1" parent="1">
                    <mxGeometry x="630" y="440" width="190" height="160" as="geometry"/>
                </mxCell>
                <mxCell id="5" value="owners&lt;br&gt;&lt;br&gt;email:string&lt;br&gt;address: string&lt;br&gt;phone:integer&lt;br&gt;username:string" style="rounded=1;whiteSpace=wrap;html=1;" vertex="1" parent="1">
                    <mxGeometry x="40" y="720" width="190" height="160" as="geometry"/>
                </mxCell>
                <mxCell id="16" value="" style="edgeStyle=entityRelationEdgeStyle;fontSize=12;html=1;endArrow=ERoneToMany;" edge="1" parent="1" source="5">
                    <mxGeometry width="100" height="100" relative="1" as="geometry">
                        <mxPoint x="70" y="700" as="sourcePoint"/>
                        <mxPoint x="170" y="600" as="targetPoint"/>
                    </mxGeometry>
                </mxCell>
                <mxCell id="17" value="" style="edgeStyle=entityRelationEdgeStyle;fontSize=12;html=1;endArrow=ERzeroToMany;endFill=1;entryX=0;entryY=0.5;entryDx=0;entryDy=0;" edge="1" parent="1" target="3">
                    <mxGeometry width="100" height="100" relative="1" as="geometry">
                        <mxPoint x="221" y="540" as="sourcePoint"/>
                        <mxPoint x="321" y="440" as="targetPoint"/>
                    </mxGeometry>
                </mxCell>
                <mxCell id="18" value="" style="edgeStyle=entityRelationEdgeStyle;fontSize=12;html=1;endArrow=ERzeroToMany;endFill=1;exitX=0;exitY=0.5;exitDx=0;exitDy=0;entryX=0.869;entryY=0.001;entryDx=0;entryDy=0;entryPerimeter=0;" edge="1" parent="1" source="4" target="3">
                    <mxGeometry width="100" height="100" relative="1" as="geometry">
                        <mxPoint x="550" y="540" as="sourcePoint"/>
                        <mxPoint x="550" y="470" as="targetPoint"/>
                    </mxGeometry>
                </mxCell>
            </root>
        </mxGraphModel>
    </diagram>
</mxfile>